<svg preserveAspectRatio="none" width="100%" height="100%" overflow="visible" style="display: block;" viewBox="0 0 79 13" fill="none" xmlns="http://www.w3.org/2000/svg">
<path id="Arrow 3" d="M-1.05482e-07 6.05548L4.74762 10.8031L9.49525 6.05548L4.74762 1.30785L-1.05482e-07 6.05548ZM78.4707 6.63694C78.7919 6.31581 78.7919 5.79515 78.4707 5.47401L73.2376 0.24085C72.9164 -0.0802832 72.3958 -0.0802832 72.0746 0.24085C71.7535 0.561983 71.7535 1.08264 72.0746 1.40378L76.7263 6.05548L72.0746 10.7072C71.7535 11.0283 71.7535 11.549 72.0746 11.8701C72.3958 12.1912 72.9164 12.1912 73.2376 11.8701L78.4707 6.63694ZM4.74762 6.05548V6.87779H77.8893V6.05548V5.23316H4.74762V6.05548Z" fill="var(--stroke-0, #2D2D2D)"/>
</svg>
